<?xml version="1.0" standalone="no"?>
<!DOCTYPE svg PUBLIC "-//W3C//DTD SVG 20010904//EN"
 "http://www.w3.org/TR/2001/REC-SVG-20010904/DTD/svg10.dtd">
<svg version="1.0" xmlns="http://www.w3.org/2000/svg"
 width="350.000000pt" height="350.000000pt" viewBox="0 0 350.000000 350.000000"
 preserveAspectRatio="xMidYMid meet">
<metadata>
Created by potrace 1.11, written by Peter Selinger 2001-2013
</metadata>
<g transform="translate(0.000000,350.000000) scale(0.100000,-0.100000)"
fill="#000000" stroke="none">
<path d="M843 2914 l-63 -15 0 -274 0 -274 38 -11 c20 -7 85 -14 143 -17 129
-7 202 11 257 62 34 31 37 38 37 88 0 61 -19 97 -71 132 l-30 20 38 36 c35 33
38 40 38 91 0 68 -27 113 -90 148 -38 20 -61 25 -140 27 -60 1 -118 -3 -157
-13z m185 -170 c12 -8 22 -22 22 -31 0 -26 -31 -53 -60 -53 -24 0 -26 3 -22
38 6 68 17 76 60 46z m2 -184 c23 -23 24 -33 10 -61 -8 -13 -21 -19 -45 -19
-35 0 -35 1 -35 43 0 24 3 47 7 50 13 13 43 7 63 -13z"/>
<path d="M1425 2906 c-96 -44 -153 -138 -162 -266 -10 -135 42 -247 136 -297
57 -30 156 -31 217 -4 46 21 48 26 60 142 l6 67 -57 -29 c-62 -31 -94 -36
-128 -17 -22 11 -46 37 -47 49 0 4 63 15 140 25 l140 18 6 30 c8 43 -11 146
-34 192 -54 105 -167 142 -277 90z m135 -175 c5 -11 10 -29 10 -39 0 -18 -8
-21 -60 -24 -66 -3 -70 1 -40 50 23 38 72 45 90 13z"/>
<path d="M1935 2921 c-121 -31 -180 -106 -173 -217 3 -50 9 -69 28 -90 33 -35
79 -54 133 -54 75 0 107 -50 40 -63 -34 -6 -117 6 -156 24 -15 7 -29 10 -31 8
-3 -2 -8 -39 -12 -81 l-7 -76 59 -23 c85 -33 193 -33 260 2 68 35 104 89 111
166 6 68 -8 105 -57 147 -27 22 -41 26 -95 26 -72 0 -95 6 -95 26 0 32 87 45
159 24 19 -5 36 -8 39 -6 2 2 7 39 11 81 l7 78 -30 12 c-40 17 -153 26 -191
16z"/>
<path d="M2197 2903 c-4 -3 -7 -46 -7 -95 l0 -88 59 0 c70 0 71 -1 71 -114 0
-46 3 -124 6 -174 l7 -92 69 0 c106 0 108 2 108 123 0 56 3 139 6 184 l7 81
57 7 57 7 7 51 c3 29 6 67 6 85 l0 32 -223 0 c-123 0 -227 -3 -230 -7z"/>
<path d="M2307 2046 c-33 -7 -63 -19 -68 -27 -5 -8 -9 -97 -9 -199 0 -102 -3
-224 -6 -272 l-6 -88 90 0 90 0 3 79 c4 86 4 85 36 95 19 6 24 -2 53 -84 18
-49 35 -90 39 -90 33 0 171 35 170 44 0 6 -20 45 -44 86 l-43 75 39 39 c111
111 56 307 -97 345 -56 14 -173 13 -247 -3z m196 -144 c9 -10 19 -32 23 -49 8
-41 -28 -82 -78 -90 -37 -5 -38 -5 -38 23 0 16 3 53 6 82 7 51 8 52 39 52 18
0 39 -8 48 -18z"/>
<path d="M697 2033 c-4 -3 -7 -47 -7 -98 l0 -91 58 4 59 4 6 -47 c4 -26 7 -89
7 -139 0 -50 3 -115 6 -143 l7 -53 82 0 82 0 6 83 c4 45 7 119 7 163 0 45 3
96 6 113 6 30 7 31 65 31 l59 0 0 90 0 90 -218 0 c-120 0 -222 -3 -225 -7z"/>
<path d="M1353 2031 c-151 -38 -240 -210 -188 -362 57 -165 267 -224 411 -114
56 43 87 109 92 198 5 89 -12 148 -59 202 -51 58 -178 96 -256 76z m115 -207
c29 -33 30 -92 1 -128 -16 -20 -29 -26 -59 -26 -50 0 -80 35 -80 94 1 46 15
71 51 85 32 13 59 5 87 -25z"/>
<path d="M2007 1921 c-9 -187 -44 -301 -93 -301 -38 0 -44 114 -15 257 11 50
22 100 25 111 6 18 -1 20 -91 26 -69 5 -98 3 -104 -5 -12 -19 -29 -180 -29
-270 1 -122 46 -215 124 -250 50 -23 82 -24 120 -4 36 19 36 19 36 -10 0 -24
2 -25 68 -25 37 0 73 4 80 8 8 6 19 79 32 223 20 216 28 284 36 329 l4 25 -93
1 -94 2 -6 -117z"/>
<path d="M2462 1179 c-19 -4 -47 -19 -63 -35 l-29 -28 0 32 0 32 -89 0 c-51 0
-93 -4 -96 -10 -4 -6 -11 -106 -16 -223 -6 -117 -13 -237 -17 -267 l-7 -54
-69 239 c-38 132 -73 255 -78 274 l-10 34 -115 -6 c-63 -3 -116 -7 -117 -9 -2
-2 -39 -124 -84 -273 l-81 -270 6 93 6 92 -82 0 -81 0 0 31 c0 29 16 232 24
312 l4 37 -108 0 -107 0 -8 -291 c-4 -159 -5 -293 -2 -296 3 -3 75 0 160 7
121 10 179 10 270 1 64 -7 121 -10 126 -7 5 4 12 24 16 46 l7 40 49 0 49 0 11
-45 c6 -25 16 -45 22 -45 6 0 51 5 100 11 67 9 91 9 96 0 5 -8 36 -9 109 -5
l102 7 1 96 c1 177 14 298 34 321 10 11 24 20 31 20 34 0 44 -169 20 -335 -7
-49 -13 -91 -12 -91 0 -1 54 -4 119 -6 l119 -5 -4 211 c-3 204 -4 213 -30 268
-37 80 -99 114 -176 97z m-563 -351 c1 -14 -7 -18 -29 -18 -33 0 -33 -2 -7 95
l11 40 12 -50 c7 -27 13 -58 13 -67z"/>
<path d="M808 1156 c-32 -7 -59 -14 -62 -17 -2 -2 -5 -130 -7 -284 l-4 -280
95 0 95 0 3 86 3 85 70 12 c120 21 187 70 210 154 28 104 -38 209 -153 243
-61 18 -170 18 -250 1z m210 -168 c19 -16 14 -66 -8 -88 -11 -11 -33 -20 -51
-20 l-30 0 6 57 c3 32 12 61 18 65 13 8 45 1 65 -14z"/>
</g>
</svg>
